<?xml version="1.0" encoding="UTF-8" standalone="no" ?>
<!DOCTYPE svg PUBLIC "-//W3C//DTD SVG 1.1//EN" "http://www.w3.org/Graphics/SVG/1.1/DTD/svg11.dtd">
<svg xmlns="http://www.w3.org/2000/svg" xmlns:xlink="http://www.w3.org/1999/xlink" version="1.1" width="512" height="512" viewBox="0 0 512 512" xml:space="preserve">
<desc>Created with Fabric.js 5.2.4</desc>
<defs>
</defs>
<rect x="0" y="0" width="100%" height="100%" fill="transparent"></rect>
<g transform="matrix(0 0 0 0 0 0)" id="21618dcd-763c-4456-b538-a1d9cf8b749e"  >
</g>
<g transform="matrix(1 0 0 1 256 256)" id="9d2c1694-6c5e-429c-86f6-7398f2ed227d"  >
<rect style="stroke: none; stroke-width: 1; stroke-dasharray: none; stroke-linecap: butt; stroke-dashoffset: 0; stroke-linejoin: miter; stroke-miterlimit: 4; fill: rgb(255,255,255); fill-rule: nonzero; opacity: 1; visibility: hidden;" vector-effect="non-scaling-stroke"  x="-256" y="-256" rx="0" ry="0" width="512" height="512" />
</g>
<g transform="matrix(1.51 0 0 1.51 256 256)"  >
<g style="" vector-effect="non-scaling-stroke"   >
		<g transform="matrix(1 0 0 1 0.05 0)"  >
<path style="stroke: none; stroke-width: 1; stroke-dasharray: none; stroke-linecap: butt; stroke-dashoffset: 0; stroke-linejoin: miter; stroke-miterlimit: 4; fill: rgb(226,67,41); fill-rule: nonzero; opacity: 1;" vector-effect="non-scaling-stroke"  transform=" translate(-190.01, -189.98)" d="M 265.3 174.4 L 265.1 173.8 L 243.90000000000003 118.50000000000001 C 243.50000000000003 117.40000000000002 242.70000000000005 116.50000000000001 241.70000000000005 115.90000000000002 C 240.70000000000005 115.30000000000003 239.60000000000005 115.00000000000001 238.40000000000003 115.00000000000001 C 237.20000000000002 115.00000000000001 236.10000000000002 115.50000000000001 235.20000000000005 116.20000000000002 C 234.30000000000004 116.90000000000002 233.60000000000005 117.90000000000002 233.30000000000004 119.10000000000002 L 219.00000000000003 162.90000000000003 L 161.10000000000002 162.90000000000003 L 146.8 119.10000000000004 C 146.5 118.00000000000004 145.8 117.00000000000004 144.9 116.20000000000003 C 144 115.50000000000003 142.9 115.00000000000003 141.70000000000002 115.00000000000003 C 140.50000000000003 115.00000000000003 139.4 115.20000000000003 138.4 115.90000000000003 C 137.4 116.50000000000003 136.6 117.40000000000003 136.20000000000002 118.50000000000003 L 115.00000000000001 173.8 L 114.80000000000001 174.4 C 108.50000000000001 190.8 113.9 209.3 127.9 219.9 L 128.1 219.9 C 128.1 220 160.39999999999998 244.20000000000002 160.39999999999998 244.20000000000002 L 176.39999999999998 256.3 L 186.09999999999997 263.6 C 188.39999999999998 265.40000000000003 191.69999999999996 265.40000000000003 193.99999999999997 263.6 L 203.69999999999996 256.3 L 219.69999999999996 244.20000000000002 L 252.19999999999996 219.9 L 252.19999999999996 219.9 C 266.19999999999993 209.3 271.49999999999994 190.8 265.19999999999993 174.4 L 265.29999999999995 174.4 Z" stroke-linecap="round" />
</g>
		<g transform="matrix(1 0 0 1 38.9 19.02)"  >
<path style="stroke: none; stroke-width: 1; stroke-dasharray: none; stroke-linecap: butt; stroke-dashoffset: 0; stroke-linejoin: miter; stroke-miterlimit: 4; fill: rgb(252,109,38); fill-rule: nonzero; opacity: 1;" vector-effect="non-scaling-stroke"  transform=" translate(-228.86, -209)" d="M 265.3 174.4 L 265.1 173.8 C 254.60000000000002 176 244.90000000000003 180.4 236.60000000000002 186.60000000000002 C 236.50000000000003 186.60000000000002 211.40000000000003 205.70000000000002 190.00000000000003 221.8 C 205.80000000000004 233.8 219.60000000000002 244.20000000000002 219.60000000000002 244.20000000000002 L 252.10000000000002 219.9 L 252.10000000000002 219.9 C 266.1 209.3 271.40000000000003 190.8 265.1 174.4 L 265.3 174.4 Z" stroke-linecap="round" />
</g>
		<g transform="matrix(1 0 0 1 -0.01 53.4)"  >
<path style="stroke: none; stroke-width: 1; stroke-dasharray: none; stroke-linecap: butt; stroke-dashoffset: 0; stroke-linejoin: miter; stroke-miterlimit: 4; fill: rgb(252,163,38); fill-rule: nonzero; opacity: 1;" vector-effect="non-scaling-stroke"  transform=" translate(-189.95, -243.38)" d="M 160.3 244.2 L 176.3 256.3 L 186 263.6 C 188.3 265.40000000000003 191.6 265.40000000000003 193.9 263.6 L 203.6 256.3 L 219.6 244.20000000000002 C 219.6 244.20000000000002 205.79999999999998 233.8 190 221.8 C 174.1 233.8 160.3 244.20000000000002 160.3 244.20000000000002 L 160.3 244.20000000000002 Z" stroke-linecap="round" />
</g>
		<g transform="matrix(1 0 0 1 -38.92 19.02)"  >
<path style="stroke: none; stroke-width: 1; stroke-dasharray: none; stroke-linecap: butt; stroke-dashoffset: 0; stroke-linejoin: miter; stroke-miterlimit: 4; fill: rgb(252,109,38); fill-rule: nonzero; opacity: 1;" vector-effect="non-scaling-stroke"  transform=" translate(-151.05, -209)" d="M 143.4 186.6 C 135.1 180.4 125.4 175.9 114.9 173.79999999999998 L 114.7 174.39999999999998 C 108.4 190.79999999999998 113.8 209.29999999999998 127.8 219.89999999999998 L 128 219.89999999999998 C 128 219.99999999999997 160.3 244.2 160.3 244.2 C 160.3 244.2 174.10000000000002 233.79999999999998 190 221.79999999999998 C 168.7 205.7 143.6 186.7 143.4 186.59999999999997 L 143.4 186.59999999999997 Z" stroke-linecap="round" />
</g>
</g>
</g>
<g transform="matrix(1.51 0 0 1.51 311.78 352.02)"  >
<path style="stroke: rgb(0,0,0); stroke-width: 0; stroke-dasharray: none; stroke-linecap: butt; stroke-dashoffset: 0; stroke-linejoin: miter; stroke-miterlimit: 4; fill: rgb(0,0,0); fill-rule: nonzero; opacity: 1;" vector-effect="non-scaling-stroke"  transform=" translate(-8, -8)" d="M 5.841 5.28 C 6.116358860429111 4.984490245515517 6.108233875917339 4.523990278005266 5.822621798956037 4.238378201043965 C 5.5370097219947345 3.952766124082662 5.0765097544844835 3.94464113957089 4.781000000000001 4.220000000000001 L 1.53 7.47 L 1 8 L 1.53 8.53 L 4.78 11.78 C 5.074149648615094 12.064371052106317 5.541933535677167 12.060528197096945 5.831371570946928 11.771362959221406 C 6.12080960621669 11.482197721345866 6.1250935569085385 11.014417665875355 5.841 10.719999999999999 L 3.8710000000000004 8.749999999999998 L 14.25 8.749999999999998 C 14.664213562373096 8.749999999999998 15 8.414213562373094 15 7.999999999999998 C 15 7.585786437626903 14.664213562373096 7.249999999999998 14.25 7.249999999999998 L 3.871 7.249999999999998 L 5.841 5.2799999999999985 Z" stroke-linecap="round" />
</g>
<g transform="matrix(1.96 0 0 1.96 226.58 351.12)"  >
<path style="stroke: rgb(0,0,0); stroke-width: 0; stroke-dasharray: none; stroke-linecap: butt; stroke-dashoffset: 0; stroke-linejoin: miter; stroke-miterlimit: 4; fill: rgb(116,255,110); fill-rule: nonzero; opacity: 1;" vector-effect="non-scaling-stroke"  transform=" translate(-7, -7)" d="M 0 7 C 0 3.1340067511844465 3.1340067511844465 0 7 0 C 10.865993248815553 0 13.999999999999998 3.1340067511844447 14 6.999999999999998 C 14 10.865993248815553 10.865993248815553 14 7 14 C 3.1340067511844474 14 0 10.865993248815553 0 7 z M 6.278 7.697 L 5.045 6.464 C 4.989700410298844 6.40779654326612 4.914262430621277 6.375978942044301 4.835416173887244 6.3756034836789 C 4.756569917153209 6.3752280253135005 4.680832340719247 6.406325742934789 4.625 6.462000000000001 L 4.0120000000000005 7.0760000000000005 C 3.8971291396010606 7.192759005667546 3.8980223837302286 7.3803402727927825 4.014 7.496 L 5.924 9.405000000000001 C 6.117410886132149 9.598932299878033 6.4308501814515555 9.60116159785328 6.627000000000001 9.410000000000002 L 6.892 9.145000000000001 L 9.997 6.04 C 10.105845899794234 5.924333068510698 10.1018404953035 5.742754731597439 9.988 5.632 L 9.373999999999999 5.018 C 9.263478675889276 4.90362459678586 9.081457338441377 4.899609420224509 8.966 5.0089999999999995 L 6.278 7.697 z" stroke-linecap="round" />
</g>
<g transform="matrix(2.37 0 0 2.37 281.85 352)"  >
<path style="stroke: rgb(0,0,0); stroke-width: 0; stroke-dasharray: none; stroke-linecap: butt; stroke-dashoffset: 0; stroke-linejoin: miter; stroke-miterlimit: 4; fill: rgb(53,92,255); fill-rule: nonzero; opacity: 1;" vector-effect="non-scaling-stroke"  transform=" translate(-6, -6)" d="M 6 12 C 9.31370849898476 12 12 9.31370849898476 12 6 C 12 2.6862915010152406 9.31370849898476 0 6 0 C 2.6862915010152397 0 0 2.6862915010152397 0 6 C 0 9.31370849898476 2.6862915010152397 12 6 12 z M 5.371 3.58 C 5.849535309608229 3.4558656921528277 6.35413191003817 3.4763975538254943 6.821 3.639 C 7.212293745255118 3.775138190833291 7.63986180916671 3.5682937452551178 7.776000000000001 3.1770000000000005 C 7.912138190833291 2.7857062547448836 7.705293745255118 2.3581381908332912 7.314000000000001 2.2220000000000004 C 5.785935323326424 1.6905279902504735 4.088182726415319 2.131873787665019 3.012403844840711 3.3402379509878197 C 1.9366249632661043 4.54860211431062 1.6946767788173913 6.286017168135079 2.3993796728465577 7.7423268825817155 C 3.104082566875724 9.19863659702835 4.616656878669641 10.087044692733832 6.231789563335511 9.993286684175928 C 7.846922248001381 9.899528675618024 9.246539450750497 8.84206866267067 9.778000000000002 7.313999999999997 C 9.914138190833292 6.922706254744883 9.707293745255118 6.49513819083329 9.316 6.359 C 8.924706254744883 6.22286180916671 8.497138190833292 6.429706254744882 8.361 6.821 C 7.969604011715652 7.947856960129488 6.836595198812201 8.641207792229535 5.655069378148627 8.476908786320736 C 4.473543557485053 8.312609780411936 3.5726930384431084 7.336437311617321 3.50359537598301 6.145545653539265 C 3.4344977135229113 4.954653995461208 4.216404640175859 3.8808449321064336 5.371 3.5809999999999995 z" stroke-linecap="round" />
</g>
<g transform="matrix(2.46 0 0 2.46 340.36 352.52)"  >
<path style="stroke: rgb(0,0,0); stroke-width: 0; stroke-dasharray: none; stroke-linecap: butt; stroke-dashoffset: 0; stroke-linejoin: miter; stroke-miterlimit: 4; fill: rgb(255,78,63); fill-rule: nonzero; opacity: 1;" vector-effect="non-scaling-stroke"  transform=" translate(-6, -6)" d="M 6 12 C 9.31370849898476 12 12 9.31370849898476 12 6 C 12 2.6862915010152406 9.31370849898476 0 6 0 C 2.6862915010152397 0 0 2.6862915010152397 0 6 C 0 9.31370849898476 2.6862915010152397 12 6 12 z M 3 5 C 2.4477152501692068 5 2 5.447715250169207 2 6 C 2 6.552284749830793 2.4477152501692068 7 3 7 L 9 7 C 9.552284749830793 7 10 6.552284749830793 10 6 C 10 5.447715250169207 9.552284749830793 5 9 5 L 3 5 z" stroke-linecap="round" />
</g>
<g transform="matrix(1.51 0 0 1.51 256 351.22)"  >
<path style="stroke: rgb(0,0,0); stroke-width: 0; stroke-dasharray: none; stroke-linecap: butt; stroke-dashoffset: 0; stroke-linejoin: miter; stroke-miterlimit: 4; fill: rgb(0,0,0); fill-rule: nonzero; opacity: 1;" vector-effect="non-scaling-stroke"  transform=" translate(-8, -8)" d="M 5.841 5.28 C 6.116358860429111 4.984490245515517 6.108233875917339 4.523990278005266 5.822621798956037 4.238378201043965 C 5.5370097219947345 3.952766124082662 5.0765097544844835 3.94464113957089 4.781000000000001 4.220000000000001 L 1.53 7.47 L 1 8 L 1.53 8.53 L 4.78 11.78 C 5.074149648615094 12.064371052106317 5.541933535677167 12.060528197096945 5.831371570946928 11.771362959221406 C 6.12080960621669 11.482197721345866 6.1250935569085385 11.014417665875355 5.841 10.719999999999999 L 3.8710000000000004 8.749999999999998 L 14.25 8.749999999999998 C 14.664213562373096 8.749999999999998 15 8.414213562373094 15 7.999999999999998 C 15 7.585786437626903 14.664213562373096 7.249999999999998 14.25 7.249999999999998 L 3.871 7.249999999999998 L 5.841 5.2799999999999985 Z" stroke-linecap="round" />
</g>
</svg>